<?xml version="1.0" encoding="utf-8"?>
<!-- Generator: Adobe Illustrator 22.1.0, SVG Export Plug-In . SVG Version: 6.00 Build 0)  -->
<svg version="1.1" id="Layer_1" xmlns="http://www.w3.org/2000/svg" xmlns:xlink="http://www.w3.org/1999/xlink" x="0px" y="0px"
	 viewBox="0 0 104 114" style="enable-background:new 0 0 104 114;" xml:space="preserve">
<style type="text/css">
	.st0{fill:none;}
	.st1{fill:#737B80;}
</style>
<g>
	<path class="st0" d="M11.3,64.4c0.6,0.4,1.1,0.9,1.6,1.3l1.9,1.5l20.3,16l1.9,1.5c0.6,0.4,1.1,0.9,1.7,1.3c1.2,1,2.5,1.8,3.9,2.6
		c5.8,3.2,12.9,3.2,18.7,0c1.4-0.8,2.6-1.6,3.9-2.6c0.6-0.4,1.1-0.8,1.7-1.3l1.9-1.5l20.3-16l1.9-1.5c0.5-0.4,1.1-0.9,1.6-1.3
		c1.2-0.9,2.2-2,3.3-3c1.9-2,3-4.6,3.1-7.3v-9c0,1.3-0.3,2.6-0.8,3.8c-0.5,1.3-1.3,2.5-2.3,3.5c-1,1.1-2.1,2.1-3.3,3
		c-0.6,0.4-1.1,0.9-1.6,1.3l-1.9,1.5l-20.3,16l-1.9,1.5c-0.6,0.4-1.1,0.9-1.7,1.3c-1.2,1-2.5,1.8-3.9,2.6c-5.8,3.2-12.9,3.2-18.7,0
		C41.3,78.8,40,78,38.8,77c-0.6-0.4-1.1-0.8-1.7-1.3l-1.9-1.5l-20.3-16L13,56.7c-0.5-0.4-1.1-0.9-1.6-1.3c-1.2-0.9-2.2-2-3.3-3
		c-1-1-1.7-2.2-2.3-3.5C5.3,47.6,5,46.3,5,45v9c0.1,2.7,1.2,5.4,3.1,7.3C9.1,62.4,10.2,63.4,11.3,64.4z"/>
	<path class="st0" d="M28.6,46l0.6,1.8c-0.1-0.4,0.2,0.7,5.4,0.5c0.5,0.8,1.1,1.6,1.7,2.3c-2.8,3.5-1.8,4.2-2.1,4l1.7,1.3
		c-0.3-0.3,0.6,0.5,5.1-1.7c1,0.5,2,1,3,1.3c-0.2,4.1,1.1,4.4,0.7,4.3l2.3,0.5c-0.5-0.1,0.9,0.2,3.3-3.4c1.1,0.1,2.3,0.1,3.4,0
		c2.4,3.6,3.7,3.3,3.3,3.4l2.3-0.5c-0.5,0.1,0.9-0.2,0.7-4.3c1-0.4,2-0.8,3-1.4c4.4,2.1,5.4,1.4,5,1.7l1.7-1.3
		c-0.3,0.3,0.6-0.5-2.1-4c0.7-0.7,1.2-1.5,1.7-2.3c5.2,0.1,5.6-0.9,5.4-0.6l0.6-1.8c-0.1,0.4,0.2-0.7-4.3-2.6c0.1-0.9,0.1-1.8,0-2.7
		c4.6-1.9,4.2-3,4.4-2.6l-0.6-1.8c0.1,0.4-0.2-0.7-5.4-0.5c-0.5-0.8-1.1-1.6-1.7-2.3c2.8-3.5,1.8-4.2,2.1-4L68.1,28
		c0.3,0.3-0.6-0.5-5,1.7c-1-0.5-2-1-3-1.4c0.2-4.1-1.1-4.4-0.7-4.3l-2.3-0.5c0.5,0.1-0.9-0.2-3.3,3.4c-1.2-0.1-2.3-0.1-3.5,0
		c-2.4-3.6-3.7-3.3-3.3-3.4l-2.3,0.5c0.5-0.1-0.9,0.2-0.7,4.3c-1,0.4-2,0.8-3,1.4c-4.4-2.1-5.4-1.4-5-1.7l-1.7,1.3
		c0.3-0.3-0.6,0.5,2.1,4c-0.7,0.7-1.2,1.5-1.7,2.4c-5.2-0.1-5.6,0.9-5.4,0.6l-0.6,1.8c0.1-0.4-0.2,0.7,4.3,2.6
		c-0.1,0.9-0.1,1.8,0,2.7C28.4,45.3,28.7,46.4,28.6,46z M63.7,35.4c4,4.4,3.4,10.5-1.6,14.5v0c-1.3,1-2.7,1.8-4.2,2.3l-3.3-9.7
		L63.7,35.4z M41.9,34c5-4,12.9-4.4,18.4-1.3l-9,7.1L39,37.3C39.8,36.1,40.7,34.9,41.9,34z M37.7,41L50,43.5l3.3,9.7
		c-4.1,0.4-8.2-0.8-11.5-3.2C38.9,47.9,37.4,44.5,37.7,41z"/>
	<path class="st0" d="M8.1,49.3c1,1.1,2.1,2.1,3.3,3c0.6,0.4,1.1,0.9,1.6,1.3l1.9,1.5l20.3,16l1.9,1.5c0.6,0.4,1.1,0.9,1.7,1.3
		c1.2,1,2.5,1.8,3.9,2.6c5.8,3.2,12.9,3.2,18.7,0c1.4-0.8,2.6-1.6,3.9-2.6c0.6-0.4,1.1-0.8,1.7-1.3l1.9-1.5l20.3-16l1.9-1.5
		c0.5-0.4,1.1-0.9,1.6-1.3c1.2-0.9,2.2-2,3.3-3c1-1,1.7-2.2,2.3-3.5c0.5-1.2,0.7-2.5,0.8-3.8c0-1.4-0.3-2.7-0.8-4
		c-0.5-1.3-1.3-2.5-2.2-3.5c-1-1.1-2.1-2.1-3.2-3c-0.5-0.4-1.1-0.9-1.6-1.3l-1.9-1.5L69,12.7l-1.9-1.5c-0.5-0.4-1.1-0.8-1.7-1.3
		c-1.2-0.9-2.5-1.8-3.8-2.5c-1.4-0.8-2.9-1.4-4.5-1.8C55.5,5.2,53.9,5,52.2,5c-1.7,0-3.4,0.2-5,0.6c-1.6,0.4-3.1,1-4.5,1.8
		C41.3,8.2,40,9,38.8,10c-0.6,0.4-1.1,0.8-1.7,1.3l-1.9,1.5l-20.3,16L13,30.3c-0.5,0.4-1.1,0.9-1.6,1.3c-1.2,0.9-2.2,2-3.3,3
		c-1,1-1.7,2.2-2.3,3.5C5.3,39.4,5,40.7,5,42c0.1,1.3,0.3,2.6,0.8,3.8C6.3,47.1,7.1,48.3,8.1,49.3z M30.9,25.4
		c11.7-9.2,30.6-9.3,42.2-0.1c11.6,9.2,11.6,24-0.1,33.2v0c-11.7,9.2-30.6,9.3-42.2,0.1C19.2,49.5,19.2,34.6,30.9,25.4z"/>
	<path class="st0" d="M99,63c0,1.3-0.3,2.6-0.8,3.8c-0.5,1.3-1.3,2.5-2.3,3.5c-1,1.1-2.1,2.1-3.3,3c-0.6,0.4-1.1,0.9-1.6,1.3
		l-1.9,1.5l-20.3,16l-1.9,1.5c-0.6,0.4-1.1,0.9-1.7,1.3c-1.2,1-2.5,1.8-3.9,2.6c-5.8,3.2-12.9,3.2-18.7,0C41.3,96.8,40,96,38.8,95
		c-0.6-0.4-1.1-0.8-1.7-1.3l-1.9-1.5l-20.3-16L13,74.7c-0.5-0.4-1.1-0.9-1.6-1.3c-1.2-0.9-2.2-2-3.3-3c-1-1-1.7-2.2-2.3-3.5
		C5.3,65.6,5,64.3,5,63v9c0,1.4,0.3,2.7,0.8,4c0.5,1.3,1.3,2.5,2.2,3.5c1,1.1,2.1,2.1,3.2,3c0.5,0.4,1.1,0.9,1.6,1.3l1.9,1.5
		L35,101.3l1.9,1.5c0.5,0.4,1.1,0.8,1.7,1.3c1.2,0.9,2.5,1.8,3.8,2.5c1.4,0.8,2.9,1.4,4.5,1.8c1.6,0.4,3.3,0.6,4.9,0.6
		c1.7,0,3.4-0.2,5-0.6c1.6-0.4,3.1-1,4.5-1.8c1.4-0.8,2.6-1.6,3.9-2.6c0.6-0.4,1.1-0.8,1.7-1.3l1.9-1.5l20.3-16l1.9-1.5
		c0.5-0.4,1.1-0.9,1.6-1.3c1.2-0.9,2.2-2,3.3-3c1-1,1.7-2.2,2.3-3.5c0.5-1.2,0.8-2.6,0.8-3.9c0-0.1,0-0.1,0-0.2V63z"/>
	<path class="st1" d="M104,71.6V42c0-2-0.4-4-1.1-5.9l0,0l0,0c-0.8-1.8-1.8-3.5-3.2-5c-1.1-1.3-2.4-2.5-3.8-3.5
		c-0.5-0.4-1-0.8-1.5-1.2l-0.2-0.1l-1.9-1.5L72.1,8.8l-1.9-1.5c-0.3-0.2-0.6-0.4-0.9-0.7c-0.3-0.2-0.5-0.4-0.8-0.6l0,0l0,0
		c-1.4-1.1-2.9-2-4.4-2.9l0,0l0,0c-1.8-1-3.7-1.7-5.7-2.2c-2-0.5-4.1-0.8-6.1-0.8h0c-2.1,0-4.2,0.3-6.3,0.8c-2,0.5-3.9,1.3-5.7,2.3
		c-1.6,0.9-3.1,1.9-4.5,2.9c-0.6,0.4-1.1,0.8-1.6,1.2l-0.1,0.1l-1.9,1.5l-20.3,16l-1.9,1.5c-0.3,0.2-0.6,0.5-0.9,0.7
		c-0.2,0.2-0.5,0.4-0.8,0.6l0,0l0,0c-1.3,1.1-2.6,2.3-3.8,3.5c-1.4,1.5-2.4,3.2-3.2,5C0.4,38,0,40,0,42l0,30c0,2,0.4,4,1.1,5.9l0,0
		l0,0c0.8,1.8,1.8,3.5,3.2,5c1.1,1.3,2.4,2.5,3.8,3.5c0.5,0.4,1,0.8,1.5,1.2l0.2,0.1l1.9,1.5l20.2,15.9l1.9,1.5
		c0.3,0.2,0.6,0.4,0.9,0.7c0.3,0.2,0.5,0.4,0.8,0.6l0,0l0,0c1.4,1.1,2.9,2,4.4,2.9l0,0l0,0c1.8,1,3.7,1.7,5.7,2.2
		c2,0.5,4.1,0.8,6.1,0.8c2.1,0,4.2-0.3,6.3-0.8c2-0.5,3.9-1.3,5.7-2.3c1.6-0.9,3.1-1.9,4.5-2.9c0.6-0.4,1.1-0.8,1.6-1.2l0.1-0.1
		l1.9-1.5l20.3-16l1.9-1.5c0.3-0.2,0.6-0.5,0.9-0.7c0.2-0.2,0.5-0.4,0.8-0.6l0,0l0,0c1.3-1.1,2.6-2.3,3.8-3.5c1.4-1.5,2.4-3.2,3.2-5
		c0.8-1.9,1.2-3.8,1.2-5.8C104,71.8,104,71.7,104,71.6z M5.8,38.2c0.5-1.3,1.3-2.5,2.3-3.5c1-1.1,2.1-2.1,3.3-3
		c0.6-0.4,1.1-0.9,1.6-1.3l1.9-1.5l20.3-16l1.9-1.5c0.6-0.4,1.1-0.9,1.7-1.3c1.2-1,2.5-1.8,3.9-2.6c1.4-0.8,2.9-1.4,4.5-1.8
		c1.6-0.4,3.3-0.6,5-0.6c1.7,0,3.3,0.2,4.9,0.6c1.6,0.4,3.1,1,4.5,1.8c1.3,0.8,2.6,1.6,3.8,2.5c0.6,0.4,1.1,0.8,1.7,1.3l1.9,1.5
		l20.2,15.9l1.9,1.5c0.6,0.4,1.1,0.9,1.6,1.3c1.2,0.9,2.2,1.9,3.2,3c0.9,1,1.7,2.2,2.2,3.5c0.5,1.3,0.8,2.6,0.8,4
		c-0.1,1.3-0.3,2.6-0.8,3.8c-0.5,1.3-1.3,2.5-2.3,3.5c-1,1.1-2.1,2.1-3.3,3c-0.6,0.4-1.1,0.9-1.6,1.3l-1.9,1.5l-20.3,16l-1.9,1.5
		c-0.6,0.4-1.1,0.9-1.7,1.3c-1.2,1-2.5,1.8-3.9,2.6c-5.8,3.2-12.9,3.2-18.7,0C41.3,75.8,40,75,38.8,74c-0.6-0.4-1.1-0.8-1.7-1.3
		l-1.9-1.5l-20.3-16L13,53.7c-0.5-0.4-1.1-0.9-1.6-1.3c-1.2-0.9-2.2-2-3.3-3c-1-1-1.7-2.2-2.3-3.5C5.3,44.6,5.1,43.3,5,42
		C5,40.7,5.3,39.4,5.8,38.2z M5,45c0,1.3,0.3,2.6,0.8,3.8c0.5,1.3,1.3,2.5,2.3,3.5c1,1.1,2.1,2.1,3.3,3c0.6,0.4,1.1,0.9,1.6,1.3
		l1.9,1.5l20.3,16l1.9,1.5c0.6,0.4,1.1,0.9,1.7,1.3c1.2,1,2.5,1.8,3.9,2.6c5.8,3.2,12.9,3.2,18.7,0c1.4-0.8,2.6-1.6,3.9-2.6
		c0.6-0.4,1.1-0.8,1.7-1.3l1.9-1.5l20.3-16l1.9-1.5c0.5-0.4,1.1-0.9,1.6-1.3c1.2-0.9,2.2-2,3.3-3c1-1,1.7-2.2,2.3-3.5
		c0.5-1.2,0.8-2.5,0.8-3.8v9c-0.1,2.7-1.2,5.4-3.1,7.3c-1,1.1-2.1,2.1-3.3,3c-0.6,0.4-1.1,0.9-1.6,1.3l-1.9,1.5l-20.3,16l-1.9,1.5
		c-0.6,0.4-1.1,0.9-1.7,1.3c-1.2,1-2.5,1.8-3.9,2.6c-5.8,3.2-12.9,3.2-18.7,0C41.3,87.8,40,87,38.8,86c-0.6-0.4-1.1-0.8-1.7-1.3
		l-1.9-1.5l-20.3-16L13,65.7c-0.5-0.4-1.1-0.9-1.6-1.3c-1.2-0.9-2.2-2-3.3-3c-1.9-2-3-4.6-3.1-7.3V45z M98.2,75.8
		c-0.5,1.3-1.3,2.5-2.3,3.5c-1,1.1-2.1,2.1-3.3,3c-0.6,0.4-1.1,0.9-1.6,1.3l-1.9,1.5l-20.3,16l-1.9,1.5c-0.6,0.4-1.1,0.9-1.7,1.3
		c-1.2,1-2.5,1.8-3.9,2.6c-1.4,0.8-2.9,1.4-4.5,1.8c-1.6,0.4-3.3,0.6-5,0.6c-1.7,0-3.3-0.2-4.9-0.6c-1.6-0.4-3.1-1-4.5-1.8
		c-1.3-0.8-2.6-1.6-3.8-2.5c-0.6-0.4-1.1-0.8-1.7-1.3l-1.9-1.5L14.8,85.4l-1.9-1.5c-0.6-0.4-1.1-0.9-1.6-1.3c-1.2-0.9-2.2-1.9-3.2-3
		c-0.9-1-1.7-2.2-2.2-3.5C5.3,74.7,5,73.4,5,72v-9c0,1.3,0.3,2.6,0.8,3.8c0.5,1.3,1.3,2.5,2.3,3.5c1,1.1,2.1,2.1,3.3,3
		c0.6,0.4,1.1,0.9,1.6,1.3l1.9,1.5l20.3,16l1.9,1.5c0.6,0.4,1.1,0.9,1.7,1.3c1.2,1,2.5,1.8,3.9,2.6c5.8,3.2,12.9,3.2,18.7,0
		c1.4-0.8,2.6-1.6,3.9-2.6c0.6-0.4,1.1-0.8,1.7-1.3l1.9-1.5l20.3-16l1.9-1.5c0.5-0.4,1.1-0.9,1.6-1.3c1.2-0.9,2.2-2,3.3-3
		c1-1,1.7-2.2,2.3-3.5c0.5-1.2,0.8-2.5,0.8-3.8v8.7c0,0.1,0,0.1,0,0.2C99,73.2,98.7,74.6,98.2,75.8z"/>
	<path class="st1" d="M30.8,58.7c11.6,9.2,30.5,9.1,42.2-0.1v0c11.7-9.2,11.8-24.1,0.1-33.2c-11.6-9.2-30.5-9.1-42.2,0.1
		C19.2,34.6,19.2,49.5,30.8,58.7z M33,40.7c-4.6-1.9-4.2-3-4.3-2.6l0.6-1.8c-0.1,0.4,0.3-0.7,5.4-0.6c0.5-0.8,1.1-1.6,1.7-2.4
		c-2.7-3.5-1.8-4.2-2.1-4l1.7-1.3c-0.3,0.3,0.6-0.5,5,1.7c1-0.5,2-1,3-1.4c-0.2-4.1,1.2-4.4,0.7-4.3l2.3-0.5
		c-0.5,0.1,0.9-0.2,3.3,3.4c1.2-0.1,2.3-0.1,3.5,0c2.5-3.6,3.8-3.3,3.3-3.4l2.3,0.5c-0.5-0.1,0.8,0.2,0.7,4.3c1,0.4,2,0.8,3,1.4
		c4.4-2.2,5.4-1.4,5-1.7l1.7,1.3c-0.3-0.3,0.6,0.5-2.1,4c0.6,0.7,1.2,1.5,1.7,2.3c5.2-0.1,5.6,0.9,5.4,0.5l0.6,1.8
		c-0.1-0.4,0.2,0.7-4.4,2.6c0.1,0.9,0.1,1.8,0,2.7c4.6,1.9,4.2,3,4.3,2.6l-0.6,1.8c0.1-0.4-0.2,0.7-5.4,0.6
		c-0.5,0.8-1.1,1.6-1.7,2.3c2.7,3.5,1.8,4.2,2.1,4L68,55.9c0.3-0.3-0.6,0.5-5-1.7c-1,0.5-2,1-3,1.4c0.2,4.1-1.2,4.4-0.7,4.3L57,60.4
		c0.5-0.1-0.9,0.2-3.3-3.4c-1.1,0.1-2.3,0.1-3.4,0c-2.5,3.6-3.8,3.3-3.3,3.4l-2.3-0.5c0.5,0.1-0.9-0.2-0.7-4.3c-1-0.4-2-0.8-3-1.3
		c-4.4,2.2-5.4,1.4-5.1,1.7l-1.7-1.3c0.3,0.3-0.6-0.5,2.1-4c-0.6-0.7-1.2-1.5-1.7-2.3c-5.2,0.1-5.6-0.9-5.4-0.5L28.6,46
		c0.1,0.4-0.2-0.7,4.4-2.6C32.9,42.5,32.9,41.6,33,40.7z"/>
	<path class="st1" d="M41.8,50c3.3,2.5,7.4,3.6,11.5,3.2L50,43.5L37.7,41C37.4,44.5,38.9,47.9,41.8,50z"/>
	<path class="st1" d="M60.3,32.8c-5.6-3.1-13.4-2.7-18.4,1.3c-1.2,0.9-2.1,2-2.9,3.3l12.3,2.6L60.3,32.8z"/>
	<path class="st1" d="M57.9,52.2c1.5-0.5,2.9-1.3,4.2-2.3v0c5-4,5.6-10.1,1.6-14.5l-9,7.1L57.9,52.2z"/>
</g>
<path class="st1" d="M116.8,23.6"/>
</svg>
